<svg width="12" height="12" viewBox="0 0 12 12" fill="none" xmlns="http://www.w3.org/2000/svg">
    <g clip-path="url(#clip0_307_324)">
        <path fill-rule="evenodd" clip-rule="evenodd"
            d="M5.17389 8.17754C5.31154 8.32478 5.48074 8.4 5.67502 8.4L5.68074 8.39992C5.87166 8.39446 6.03699 8.32069 6.17689 8.1808L9.15983 5.13124L9.16137 5.12963C9.28024 5.00536 9.35005 4.85109 9.35005 4.66621C9.35005 4.29327 9.05678 4 8.68384 4C8.50255 4 8.33493 4.07408 8.2094 4.19961L5.67502 6.79706L3.14238 4.20136L3.14064 4.19962C3.01577 4.07475 2.8523 4 2.66621 4C2.29326 4 2 4.29326 2 4.66621C2 4.84628 2.06914 5.00468 2.18866 5.12964L5.17389 8.17754Z"
            fill="#414852" />
    </g>
    <defs>
        <clipPath id="clip0_307_324">
            <rect width="12" height="12" fill="white" />
        </clipPath>
    </defs>
</svg>
    