<svg xmlns="http://www.w3.org/2000/svg" width="12" height="12" viewBox="0 0 12 12" fill="none">
<g clip-path="url(#clip0_157_90)">
<path fill-rule="evenodd" clip-rule="evenodd" d="M8.17759 5.82611C8.32483 5.68846 8.40005 5.51926 8.40005 5.32498L8.39997 5.31926C8.39451 5.12834 8.32074 4.96301 8.18085 4.82311L5.13129 1.84017L5.12968 1.83863C5.00541 1.71976 4.85114 1.64995 4.66626 1.64995C4.29331 1.64995 4.00005 1.94322 4.00005 2.31616C4.00005 2.49745 4.07413 2.66507 4.19966 2.7906L6.79711 5.32498L4.2014 7.85762L4.19967 7.85936C4.0748 7.98423 4.00005 8.1477 4.00005 8.33379C4.00005 8.70674 4.29331 9 4.66626 9C4.84633 9 5.00473 8.93086 5.12968 8.81134L8.17759 5.82611Z" fill="#414852"/>
</g>
<defs>
<clipPath id="clip0_157_90">
<rect width="12" height="12" fill="white"/>
</clipPath>
</defs>
</svg>