<svg width="16" height="16" viewBox="0 0 16 16" fill="#E66282" xmlns="http://www.w3.org/2000/svg">
    <path
        d="M7.99616 15.7896C12.2676 15.7896 15.7933 12.2639 15.7933 7.99999C15.7933 3.73604 12.2601 0.210373 7.98863 0.210373C3.72468 0.210373 0.206543 3.73604 0.206543 7.99999C0.206543 12.2639 3.73221 15.7896 7.99616 15.7896ZM7.99616 14.2377C4.5383 14.2377 1.77351 11.4579 1.77351 7.99999C1.77351 4.54213 4.5383 1.7698 7.98863 1.7698C11.4465 1.7698 14.2264 4.54213 14.2339 7.99999C14.2414 11.4579 11.454 14.2377 7.99616 14.2377ZM7.98863 9.25055C8.40297 9.25055 8.64404 9.01701 8.65158 8.58007L8.76458 4.95647C8.77965 4.51199 8.44817 4.18805 7.9811 4.18805C7.51402 4.18805 7.19008 4.50446 7.20515 4.94893L7.31062 8.58007C7.32568 9.00948 7.56676 9.25055 7.98863 9.25055ZM7.98863 11.7517C8.47831 11.7517 8.87758 11.3976 8.87758 10.9155C8.87758 10.4408 8.48584 10.0868 7.98863 10.0868C7.49895 10.0868 7.09968 10.4408 7.09968 10.9155C7.09968 11.3901 7.50649 11.7517 7.98863 11.7517Z" />
</svg>
    