<svg width="18" height="18" viewBox="0 0 18 18" fill="none" xmlns="http://www.w3.org/2000/svg">
<g clip-path="url(#clip0_21_446)">
<path d="M7.92037 5.8826C7.92419 5.64831 8.01951 5.42482 8.18594 5.25988C8.35237 5.09494 8.57672 5.00165 8.81103 4.99994C9.04212 5.00653 9.26153 5.10299 9.42262 5.26882C9.58371 5.43464 9.67378 5.65675 9.67369 5.88793C9.67334 6.00306 9.65032 6.11699 9.60594 6.22321C9.56156 6.32944 9.49669 6.42589 9.41504 6.50704C9.33338 6.5882 9.23654 6.65248 9.13005 6.69621C9.02355 6.73995 8.90949 6.76228 8.79436 6.76193C8.67924 6.76158 8.56531 6.73855 8.45908 6.69417C8.35286 6.64979 8.25641 6.58493 8.17525 6.50327C8.09409 6.42162 8.02981 6.32478 7.98608 6.21829C7.94235 6.11179 7.92002 5.99772 7.92037 5.8826Z" fill="#79BEEF"/>
<path d="M8.35632 8.55474L8.35034 8.55314C8.31286 8.54314 8.27984 8.53433 8.24566 8.52674C8.08408 8.50134 7.93822 8.41541 7.83769 8.2864C7.73715 8.15739 7.68948 7.99496 7.70433 7.83208C7.71659 7.66481 7.79258 7.50862 7.91662 7.39574C8.04067 7.28286 8.20331 7.22189 8.37099 7.22541C8.4341 7.22541 8.49736 7.22675 8.56062 7.22808C8.68713 7.23075 8.81365 7.23341 8.93898 7.22541C9.30831 7.19608 9.67365 7.45208 9.66964 7.95874V11.6614L9.78964 11.688C9.95103 11.7174 10.0956 11.806 10.1952 11.9363C10.2947 12.0667 10.342 12.2296 10.3279 12.393C10.3137 12.5564 10.2391 12.7086 10.1185 12.8199C9.99804 12.9312 9.84034 12.9935 9.67631 12.9947C9.23187 13.0018 8.78743 13.0018 8.34299 12.9947C8.17877 12.9968 8.0197 12.9374 7.89709 12.8282C7.77448 12.7189 7.6972 12.5677 7.68048 12.4044C7.66376 12.241 7.7088 12.0773 7.80674 11.9454C7.90467 11.8136 8.04841 11.7232 8.20966 11.692C8.23351 11.6865 8.25784 11.6819 8.28463 11.6768C8.30276 11.6733 8.322 11.6697 8.34299 11.6654V8.55474H8.35632Z" fill="#79BEEF"/>
<path fill-rule="evenodd" clip-rule="evenodd" d="M16.7934 9.00001C16.7934 13.264 13.2677 16.7896 8.99622 16.7896C4.73227 16.7896 1.2066 13.264 1.2066 9.00001C1.2066 4.73606 4.72474 1.21039 8.98869 1.21039C13.2602 1.21039 16.7934 4.73606 16.7934 9.00001ZM2.77357 9.00001C2.77357 12.4579 5.53836 15.2377 8.99622 15.2377C12.4541 15.2377 15.2415 12.4579 15.2339 9.00001C15.2264 5.54214 12.4466 2.76982 8.98869 2.76982C5.53836 2.76982 2.77357 5.54214 2.77357 9.00001Z" fill="#79BEEF"/>
</g>
<defs>
<clipPath id="clip0_21_446">
<rect width="18" height="18" fill="white"/>
</clipPath>
</defs>
</svg>
