<svg width="175" height="25" viewBox="0 0 175 25" fill="none" xmlns="http://www.w3.org/2000/svg">
    <rect x="126.691" y="6.56885" width="47.547" height="17" rx="3.5" stroke="#D6448F" />
    <path
        d="M167.193 12.7513C167.143 12.3027 166.934 11.9551 166.568 11.7087C166.201 11.4591 165.74 11.3343 165.184 11.3343C164.786 11.3343 164.441 11.3974 164.151 11.5238C163.86 11.647 163.634 11.8177 163.473 12.0357C163.315 12.2505 163.236 12.4954 163.236 12.7703C163.236 13.0009 163.29 13.2 163.397 13.3674C163.508 13.5349 163.651 13.6755 163.828 13.7892C164.009 13.8998 164.201 13.993 164.407 14.0688C164.612 14.1415 164.809 14.2015 164.999 14.2489L165.947 14.4954C166.257 14.5712 166.574 14.6739 166.9 14.8034C167.225 14.933 167.527 15.1036 167.805 15.3153C168.083 15.527 168.307 15.7892 168.478 16.102C168.651 16.4148 168.738 16.7892 168.738 17.2252C168.738 17.775 168.596 18.2632 168.312 18.6897C168.031 19.1162 167.621 19.4527 167.084 19.6992C166.55 19.9456 165.904 20.0688 165.146 20.0688C164.419 20.0688 163.791 19.9535 163.26 19.7229C162.729 19.4922 162.313 19.1652 162.013 18.7418C161.713 18.3153 161.547 17.8098 161.516 17.2252H162.985C163.013 17.576 163.127 17.8682 163.326 18.102C163.528 18.3327 163.786 18.5049 164.099 18.6186C164.415 18.7292 164.76 18.7845 165.136 18.7845C165.55 18.7845 165.918 18.7197 166.241 18.5902C166.566 18.4575 166.822 18.2742 167.009 18.0404C167.195 17.8034 167.288 17.527 167.288 17.211C167.288 16.9235 167.206 16.6881 167.042 16.5049C166.881 16.3216 166.661 16.17 166.383 16.0499C166.108 15.9298 165.797 15.824 165.449 15.7324L164.302 15.4196C163.525 15.2079 162.909 14.8967 162.454 14.4859C162.002 14.0752 161.776 13.5317 161.776 12.8556C161.776 12.2963 161.928 11.8082 162.231 11.3911C162.535 10.9741 162.945 10.6502 163.463 10.4196C163.982 10.1858 164.566 10.0688 165.217 10.0688C165.874 10.0688 166.454 10.1842 166.956 10.4148C167.462 10.6455 167.86 10.963 168.151 11.3674C168.441 11.7687 168.593 12.23 168.606 12.7513H167.193Z"
        fill="#D6448F" />
    <path
        d="M160.138 13.3579H158.659C158.603 13.042 158.497 12.7639 158.342 12.5238C158.187 12.2837 157.997 12.0799 157.773 11.9124C157.549 11.745 157.298 11.6186 157.02 11.5333C156.745 11.448 156.452 11.4053 156.143 11.4053C155.584 11.4053 155.083 11.5459 154.64 11.8271C154.201 12.1083 153.854 12.5207 153.598 13.0641C153.345 13.6076 153.219 14.2711 153.219 15.0546C153.219 15.8445 153.345 16.5112 153.598 17.0546C153.854 17.5981 154.203 18.0088 154.645 18.2869C155.088 18.5649 155.585 18.7039 156.138 18.7039C156.445 18.7039 156.735 18.6628 157.01 18.5807C157.288 18.4954 157.539 18.3706 157.764 18.2063C157.988 18.042 158.178 17.8414 158.332 17.6044C158.49 17.3643 158.599 17.0894 158.659 16.7797L160.138 16.7845C160.059 17.2616 159.906 17.7008 159.678 18.102C159.454 18.5001 159.165 18.8445 158.811 19.1352C158.46 19.4227 158.059 19.6455 157.607 19.8034C157.155 19.9614 156.663 20.0404 156.129 20.0404C155.288 20.0404 154.539 19.8414 153.882 19.4433C153.225 19.042 152.707 18.4685 152.328 17.7229C151.952 16.9772 151.764 16.0878 151.764 15.0546C151.764 14.0183 151.953 13.1289 152.332 12.3864C152.712 11.6407 153.23 11.0688 153.887 10.6707C154.544 10.2695 155.291 10.0688 156.129 10.0688C156.644 10.0688 157.124 10.1431 157.569 10.2916C158.018 10.4369 158.421 10.6518 158.778 10.9361C159.135 11.2173 159.43 11.5617 159.664 11.9693C159.898 12.3737 160.056 12.8366 160.138 13.3579Z"
        fill="#D6448F" />
    <path
        d="M150.256 15.0546C150.256 16.091 150.066 16.982 149.687 17.7276C149.308 18.4701 148.788 19.042 148.128 19.4433C147.471 19.8414 146.723 20.0404 145.886 20.0404C145.046 20.0404 144.295 19.8414 143.635 19.4433C142.978 19.042 142.46 18.4685 142.08 17.7229C141.701 16.9772 141.512 16.0878 141.512 15.0546C141.512 14.0183 141.701 13.1289 142.08 12.3864C142.46 11.6407 142.978 11.0688 143.635 10.6707C144.295 10.2695 145.046 10.0688 145.886 10.0688C146.723 10.0688 147.471 10.2695 148.128 10.6707C148.788 11.0688 149.308 11.6407 149.687 12.3864C150.066 13.1289 150.256 14.0183 150.256 15.0546ZM148.806 15.0546C148.806 14.2647 148.678 13.5997 148.422 13.0594C148.169 12.5159 147.821 12.1052 147.379 11.8271C146.94 11.5459 146.442 11.4053 145.886 11.4053C145.327 11.4053 144.828 11.5459 144.388 11.8271C143.949 12.1052 143.602 12.5159 143.346 13.0594C143.093 13.5997 142.967 14.2647 142.967 15.0546C142.967 15.8445 143.093 16.5112 143.346 17.0546C143.602 17.5949 143.949 18.0057 144.388 18.2869C144.828 18.5649 145.327 18.7039 145.886 18.7039C146.442 18.7039 146.94 18.5649 147.379 18.2869C147.821 18.0057 148.169 17.5949 148.422 17.0546C148.678 16.5112 148.806 15.8445 148.806 15.0546Z"
        fill="#D6448F" />
    <path
        d="M135.334 19.9073H132.191V10.2012H135.433C136.384 10.2012 137.201 10.3955 137.883 10.7841C138.566 11.1696 139.089 11.7241 139.452 12.4476C139.819 13.168 140.002 14.0321 140.002 15.04C140.002 16.0511 139.817 16.92 139.447 17.6467C139.081 18.3734 138.55 18.9326 137.855 19.3244C137.16 19.713 136.319 19.9073 135.334 19.9073ZM133.656 18.6277H135.253C135.992 18.6277 136.607 18.4887 137.097 18.2107C137.586 17.9295 137.953 17.5234 138.196 16.9926C138.439 16.4587 138.561 15.8078 138.561 15.04C138.561 14.2786 138.439 13.6325 138.196 13.1016C137.956 12.5708 137.597 12.168 137.12 11.8931C136.643 11.6182 136.051 11.4808 135.343 11.4808H133.656V18.6277Z"
        fill="#D6448F" />
    <path
        d="M9.05395 15.815C8.15576 16.6505 6.94816 17.1164 5.74407 16.882C4.66132 16.6712 3.60729 16.3353 2.59081 15.876C2.15549 15.6792 1.72457 15.4582 1.31047 15.2183C-0.377886 14.2412 -0.382785 11.9539 0.99645 10.5745L8.04479 3.52511C8.40472 3.16513 8.89291 2.96289 9.40196 2.96289H21.0657C21.6356 2.96289 21.9211 3.65197 21.5181 4.05498C19.3715 6.20152 12.1337 12.9504 9.05395 15.815Z"
        fill="#D6448F" />
    <path
        d="M2.8228 23.365L15.2808 11.6298C16.1824 10.7806 17.4017 10.3043 18.6171 10.5427C19.6929 10.7537 20.7402 11.0883 21.7505 11.5448C22.1858 11.7416 22.6167 11.9626 23.0308 12.2025C24.7192 13.1795 24.724 15.4669 23.3447 16.8462L16.2958 23.8951C15.9358 24.255 15.4477 24.4572 14.9387 24.4572H3.27511C2.70513 24.4572 2.41972 23.768 2.8228 23.365Z"
        fill="#D6448F" />
    <path
        d="M34.666 6.84961C36.4018 6.84966 37.8449 7.236 38.9951 8.00977C40.1453 8.78354 40.8983 9.798 41.2539 11.0527L37.583 12.1826C37.4157 11.3879 37.0707 10.8229 36.5479 10.4883C36.046 10.1538 35.4187 9.98638 34.666 9.98633C33.9131 9.98633 33.3378 10.1227 32.9404 10.3945C32.5431 10.6455 32.3438 11.0008 32.3438 11.4609C32.3438 11.9629 32.5534 12.3398 32.9717 12.5908C33.3899 12.8208 33.9551 12.9986 34.666 13.124L35.5439 13.2803C36.7152 13.4894 37.7717 13.7724 38.7129 14.1279C39.6748 14.4626 40.4279 14.9542 40.9717 15.6025C41.5362 16.23 41.8184 17.0874 41.8184 18.1748C41.8183 19.8061 41.2224 21.0714 40.0303 21.9707C38.8591 22.8491 37.2798 23.2881 35.293 23.2881C33.2643 23.2881 31.6014 22.8491 30.3047 21.9707C29.0081 21.0923 28.224 19.8373 27.9521 18.2061L31.5908 17.2646C31.7372 17.9966 31.9779 18.572 32.3125 18.9902C32.668 19.4085 33.0968 19.7122 33.5986 19.9004C34.1215 20.0677 34.6865 20.1514 35.293 20.1514C36.213 20.1514 36.8928 19.9943 37.332 19.6807C37.7712 19.346 37.9912 18.938 37.9912 18.457C37.9912 17.976 37.7816 17.6104 37.3633 17.3594C36.945 17.0875 36.2757 16.8675 35.3555 16.7002L34.4775 16.543C33.39 16.3338 32.3964 16.0518 31.4971 15.6963C30.5977 15.3198 29.8758 14.8075 29.332 14.1592C28.7883 13.5109 28.5166 12.6741 28.5166 11.6494C28.5166 10.1018 29.0816 8.92017 30.2109 8.10449C31.3403 7.2679 32.8255 6.84961 34.666 6.84961ZM77.7021 6.84961C79.7517 6.84963 81.3723 7.36194 82.5645 8.38672C83.7566 9.41154 84.3525 10.8967 84.3525 12.8418V18.6455C84.3526 19.2727 84.6459 19.5859 85.2314 19.5859H86.4863V22.8486H83.8506C83.077 22.8486 82.4394 22.6606 81.9375 22.2842C81.4355 21.9077 81.1846 21.4058 81.1846 20.7783V20.7471H80.5879C80.5042 20.998 80.3162 21.3327 80.0234 21.751C79.7307 22.1483 79.2708 22.5037 78.6436 22.8174C78.0161 23.1311 77.1579 23.2881 76.0703 23.2881C74.9622 23.288 73.969 23.0999 73.0908 22.7236C72.2124 22.3263 71.5112 21.7613 70.9883 21.0293C70.4864 20.2764 70.2354 19.3664 70.2354 18.2998C70.2354 17.2334 70.4865 16.3448 70.9883 15.6338C71.5112 14.9018 72.2227 14.3575 73.1221 14.002C74.0422 13.6256 75.0878 13.4375 76.2588 13.4375H80.5254V12.5586C80.5253 11.8268 80.295 11.2306 79.835 10.7705C79.3749 10.2897 78.6432 10.0489 77.6396 10.0488C76.6567 10.0488 75.9244 10.2792 75.4434 10.7393C74.9623 11.1785 74.6484 11.7537 74.502 12.4648L70.8633 11.2412C71.1142 10.4467 71.5112 9.72532 72.0547 9.07715C72.6194 8.40792 73.3621 7.87394 74.2822 7.47656C75.2234 7.05827 76.3636 6.84961 77.7021 6.84961ZM111.406 6.84961C113.456 6.84961 115.076 7.36196 116.269 8.38672C117.461 9.41154 118.058 10.8967 118.058 12.8418V18.6455C118.058 19.2727 118.35 19.5859 118.936 19.5859H120.19V22.8486H117.556C116.782 22.8486 116.144 22.6606 115.642 22.2842C115.14 21.9077 114.889 21.4058 114.889 20.7783V20.7471H114.293C114.209 20.998 114.02 21.3327 113.728 21.751C113.435 22.1483 112.975 22.5037 112.348 22.8174C111.72 23.1311 110.863 23.288 109.775 23.2881C108.667 23.2881 107.673 23.1 106.795 22.7236C105.917 22.3263 105.215 21.7613 104.692 21.0293C104.191 20.2764 103.939 19.3663 103.939 18.2998C103.939 17.2334 104.191 16.3448 104.692 15.6338C105.215 14.9018 105.927 14.3575 106.826 14.002C107.746 13.6256 108.792 13.4375 109.963 13.4375H114.229V12.5586C114.229 11.8268 114 11.2305 113.54 10.7705C113.08 10.2895 112.348 10.0489 111.344 10.0488C110.361 10.0488 109.629 10.2792 109.147 10.7393C108.666 11.1785 108.352 11.7537 108.206 12.4648L104.567 11.2412C104.818 10.4465 105.216 9.72544 105.76 9.07715C106.324 8.40794 107.066 7.87393 107.986 7.47656C108.927 7.05827 110.068 6.84961 111.406 6.84961ZM47.3535 22.8496H43.4004V7.28809H47.3535V22.8496ZM53.8047 22.8496H49.8516V0.888672H53.8047V22.8496ZM62.4199 19.9629H62.9844L66.5918 7.28809H70.7959L65.8389 22.8486H59.5645L54.6074 7.28809H58.8115L62.4199 19.9629ZM96.498 7.03711C97.7111 7.03711 98.7677 7.32007 99.667 7.88477C100.587 8.42854 101.298 9.19193 101.8 10.1748C102.302 11.1368 102.553 12.266 102.553 13.5625V22.8486H98.5996V13.877C98.5996 12.7057 98.3073 11.8268 97.7217 11.2412C97.157 10.6556 96.341 10.3633 95.2744 10.3633C94.0614 10.3633 93.1204 10.7713 92.4512 11.5869C91.782 12.3817 91.4473 13.5004 91.4473 14.9434V22.8486H87.4941V7.28809H91.3848V9.32812H91.9492C92.2002 8.78434 92.6711 8.27108 93.3613 7.79004C94.0515 7.28832 95.0971 7.03711 96.498 7.03711ZM76.541 16.3867C75.8091 16.3868 75.2337 16.5437 74.8154 16.8574C74.3974 17.1711 74.1885 17.6103 74.1885 18.1748C74.1885 18.7394 74.4085 19.1992 74.8477 19.5547C75.2868 19.9101 75.9243 20.0879 76.7607 20.0879C77.8692 20.0879 78.7688 19.7852 79.459 19.1787C80.1701 18.5513 80.5254 17.725 80.5254 16.7002V16.3867H76.541ZM110.245 16.3867C109.513 16.3868 108.939 16.5438 108.521 16.8574C108.102 17.1711 107.893 17.6101 107.893 18.1748C107.893 18.7394 108.113 19.1992 108.552 19.5547C108.991 19.9102 109.628 20.0879 110.465 20.0879C111.573 20.0879 112.473 19.7852 113.163 19.1787C113.874 18.5513 114.229 17.725 114.229 16.7002V16.3867H110.245ZM47.3506 4.4082H43.4023V0.457031H47.3506V4.4082Z"
        fill="white" />
</svg>