<svg width="129" height="24" viewBox="0 0 129 24" fill="none" xmlns="http://www.w3.org/2000/svg">
<path fill-rule="evenodd" clip-rule="evenodd" d="M45.9937 0V4.47946H51.0414V0H45.9937ZM46.1608 6.75262V23.467H50.9077V6.75262H46.1608ZM53.4603 23.4676V0.0673857H58.2072V23.4676H53.4603ZM76.2263 19.1862C76.2486 18.0942 76.516 17.1471 77.0286 16.3448C77.5412 15.5425 78.2766 14.8962 79.2349 14.4059C80.2155 13.9156 81.2963 13.5368 82.4775 13.2693C83.6809 12.9796 85.0961 12.7568 86.7229 12.6008V11.9656C86.7229 10.4279 85.8092 9.65903 83.9818 9.65903C81.9538 9.65903 80.728 10.5393 80.3046 12.2999L76.0257 11.3639C76.1594 9.95989 76.9394 8.75645 78.3657 7.75359C79.8143 6.75072 81.6752 6.24929 83.9483 6.24929C86.3552 6.24929 88.1938 6.7953 89.4641 7.8873C90.7567 8.97931 91.403 10.595 91.403 12.7345V18.852C91.403 19.2977 91.4587 19.5763 91.5701 19.6877C91.6815 19.7991 91.9601 19.8548 92.4058 19.8548H93.8767V23.4651H90.233C88.4055 23.4651 87.4027 22.6517 87.2244 21.0248C85.9318 23.0083 84.0264 24 81.508 24C79.9926 24 78.7335 23.5543 77.7306 22.6628C76.7277 21.7714 76.2263 20.6125 76.2263 19.1862ZM86.7229 16.6122V15.5425C84.8064 15.7877 83.3801 16.1331 82.4441 16.5788C81.508 17.0245 81.04 17.7377 81.04 18.7182C81.04 19.9217 81.7643 20.5234 83.2129 20.5234C84.2158 20.5234 85.0515 20.1891 85.7201 19.5205C86.3887 18.852 86.7229 17.8825 86.7229 16.6122ZM94.3868 6.75072V23.4651H99.1337V15.5425C99.1337 13.4476 99.5015 11.9545 100.237 11.063C100.727 10.4613 101.474 10.1605 102.477 10.1605C104.259 10.1605 105.151 11.2079 105.151 13.3028V23.4651H109.898V12.2665C109.898 10.3499 109.43 8.86788 108.494 7.82045C107.58 6.77301 106.21 6.24929 104.382 6.24929C102.042 6.24929 100.248 7.27444 99 9.32474V6.75072H94.3868ZM112.16 16.3448C111.647 17.1471 111.38 18.0942 111.358 19.1862C111.358 20.6125 111.859 21.7714 112.862 22.6628C113.865 23.5543 115.124 24 116.639 24C119.158 24 121.063 23.0083 122.356 21.0248C122.534 22.6517 123.537 23.4651 125.364 23.4651H129.008V19.8548H127.537C127.092 19.8548 126.813 19.7991 126.701 19.6877C126.59 19.5763 126.534 19.2977 126.534 18.852V12.7345C126.534 10.595 125.888 8.97931 124.595 7.8873C123.325 6.7953 121.487 6.24929 119.08 6.24929C116.807 6.24929 114.946 6.75072 113.497 7.75359C112.071 8.75645 111.291 9.95989 111.157 11.3639L115.436 12.2999C115.859 10.5393 117.085 9.65903 119.113 9.65903C120.941 9.65903 121.854 10.4279 121.854 11.9656V12.6008C120.227 12.7568 118.812 12.9796 117.609 13.2693C116.428 13.5368 115.347 13.9156 114.366 14.4059C113.408 14.8962 112.673 15.5425 112.16 16.3448ZM121.854 15.5425V16.6122C121.854 17.8825 121.52 18.852 120.851 19.5205C120.183 20.1891 119.347 20.5234 118.344 20.5234C116.896 20.5234 116.171 19.9217 116.171 18.7182C116.171 17.7377 116.639 17.0245 117.575 16.5788C118.511 16.1331 119.938 15.7877 121.854 15.5425ZM58.7838 6.75322L65.2021 23.4676H70.885L76.969 6.75322H72.1219L69.9156 13.6061C69.4921 14.9656 68.8681 16.9044 68.0436 19.4227C67.6201 18.2193 67.2078 17.0047 66.8067 15.779L66.0713 13.6061L63.7647 6.75322H58.7838ZM29.2322 19.1528L33.5445 17.7822C33.6782 18.384 34.0014 19.008 34.514 19.6543C35.0043 20.2783 35.9514 20.5903 37.3554 20.5903C38.1354 20.5903 38.7483 20.4343 39.194 20.1223C39.662 19.8103 39.896 19.4091 39.896 18.9188C39.896 18.4508 39.74 18.0831 39.428 17.8157C39.116 17.5259 38.5811 17.3031 37.8234 17.1471L35.45 16.6791C33.5111 16.3002 32.0959 15.7319 31.2045 14.9742C30.3354 14.2165 29.9008 13.0688 29.9008 11.531C29.9008 9.92646 30.5471 8.64502 31.8397 7.68673C33.1322 6.72844 34.8817 6.24929 37.088 6.24929C38.9154 6.24929 40.4309 6.62815 41.6343 7.38587C42.86 8.14359 43.6957 9.04617 44.1415 10.0936L40.2303 11.8653C39.6509 10.3053 38.5254 9.52532 36.854 9.52532C36.0963 9.52532 35.5057 9.67017 35.0823 9.95989C34.6811 10.2496 34.4805 10.6396 34.4805 11.1299C34.4805 11.5979 34.6365 11.9545 34.9485 12.1996C35.2828 12.4225 35.8957 12.6119 36.7871 12.7679L39.0937 13.2025C42.9269 13.9379 44.8435 15.6762 44.8435 18.4174C44.8435 20.1111 44.1526 21.4594 42.7709 22.4623C41.3892 23.4429 39.4949 23.9331 37.088 23.9331C35.1045 23.9331 33.3774 23.4986 31.9065 22.6294C30.4579 21.7603 29.5665 20.6014 29.2322 19.1528ZM4.37514 6.26402C7.06653 6.25216 9.60824 7.52011 11.4662 9.70763C11.0873 10.2484 10.7424 10.8291 10.4366 11.4464L9.25153 13.8381C8.11925 12.0307 6.31837 10.9488 4.38995 10.9573L0.0148134 10.9766L0 6.28331L4.37514 6.26402ZM20.0512 6.26402C16.4894 6.24832 13.1898 8.47401 11.3902 12.1062L9.60877 15.7014C8.52435 17.89 6.53614 19.2311 4.38996 19.2217L0.0148201 19.2024L4.88731e-06 23.8957L4.37515 23.915C7.93689 23.9307 11.2365 21.705 13.0361 18.0728L14.8175 14.4776C15.9019 12.289 17.8902 10.9479 20.0363 10.9573L24.4115 10.9766L24.4263 6.28331L20.0512 6.26402ZM15.1748 16.341L13.9897 18.7326C13.6839 19.3499 13.339 19.9306 12.9601 20.4714C14.8181 22.6589 17.3598 23.9268 20.0511 23.915L24.4263 23.8957L24.4115 19.2024L20.0363 19.2217C18.1079 19.2302 16.3071 18.1483 15.1748 16.341Z" fill="url(#paint0_linear_128_268)"/>
<g style="mix-blend-mode:multiply" opacity="0.2">
<path fill-rule="evenodd" clip-rule="evenodd" d="M45.9937 0V4.47946H51.0414V0H45.9937ZM46.1608 6.75262V23.467H50.9077V6.75262H46.1608ZM53.4603 23.4676V0.0673857H58.2072V23.4676H53.4603ZM76.2263 19.1862C76.2486 18.0942 76.516 17.1471 77.0286 16.3448C77.5412 15.5425 78.2766 14.8962 79.2349 14.4059C80.2155 13.9156 81.2963 13.5368 82.4775 13.2693C83.6809 12.9796 85.0961 12.7568 86.7229 12.6008V11.9656C86.7229 10.4279 85.8092 9.65903 83.9818 9.65903C81.9538 9.65903 80.728 10.5393 80.3046 12.2999L76.0257 11.3639C76.1594 9.95989 76.9394 8.75645 78.3657 7.75359C79.8143 6.75072 81.6752 6.24929 83.9483 6.24929C86.3552 6.24929 88.1938 6.7953 89.4641 7.8873C90.7567 8.97931 91.403 10.595 91.403 12.7345V18.852C91.403 19.2977 91.4587 19.5763 91.5701 19.6877C91.6815 19.7991 91.9601 19.8548 92.4058 19.8548H93.8767V23.4651H90.233C88.4055 23.4651 87.4027 22.6517 87.2244 21.0248C85.9318 23.0083 84.0264 24 81.508 24C79.9926 24 78.7335 23.5543 77.7306 22.6628C76.7277 21.7714 76.2263 20.6125 76.2263 19.1862ZM86.7229 16.6122V15.5425C84.8064 15.7877 83.3801 16.1331 82.4441 16.5788C81.508 17.0245 81.04 17.7377 81.04 18.7182C81.04 19.9217 81.7643 20.5234 83.2129 20.5234C84.2158 20.5234 85.0515 20.1891 85.7201 19.5205C86.3887 18.852 86.7229 17.8825 86.7229 16.6122ZM94.3868 6.75072V23.4651H99.1337V15.5425C99.1337 13.4476 99.5015 11.9545 100.237 11.063C100.727 10.4613 101.474 10.1605 102.477 10.1605C104.259 10.1605 105.151 11.2079 105.151 13.3028V23.4651H109.898V12.2665C109.898 10.3499 109.43 8.86788 108.494 7.82045C107.58 6.77301 106.21 6.24929 104.382 6.24929C102.042 6.24929 100.248 7.27444 99 9.32474V6.75072H94.3868ZM112.16 16.3448C111.647 17.1471 111.38 18.0942 111.358 19.1862C111.358 20.6125 111.859 21.7714 112.862 22.6628C113.865 23.5543 115.124 24 116.639 24C119.158 24 121.063 23.0083 122.356 21.0248C122.534 22.6517 123.537 23.4651 125.364 23.4651H129.008V19.8548H127.537C127.092 19.8548 126.813 19.7991 126.701 19.6877C126.59 19.5763 126.534 19.2977 126.534 18.852V12.7345C126.534 10.595 125.888 8.97931 124.595 7.8873C123.325 6.7953 121.487 6.24929 119.08 6.24929C116.807 6.24929 114.946 6.75072 113.497 7.75359C112.071 8.75645 111.291 9.95989 111.157 11.3639L115.436 12.2999C115.859 10.5393 117.085 9.65903 119.113 9.65903C120.941 9.65903 121.854 10.4279 121.854 11.9656V12.6008C120.227 12.7568 118.812 12.9796 117.609 13.2693C116.428 13.5368 115.347 13.9156 114.366 14.4059C113.408 14.8962 112.673 15.5425 112.16 16.3448ZM121.854 15.5425V16.6122C121.854 17.8825 121.52 18.852 120.851 19.5205C120.183 20.1891 119.347 20.5234 118.344 20.5234C116.896 20.5234 116.171 19.9217 116.171 18.7182C116.171 17.7377 116.639 17.0245 117.575 16.5788C118.511 16.1331 119.938 15.7877 121.854 15.5425ZM58.7838 6.75322L65.2021 23.4676H70.885L76.969 6.75322H72.1219L69.9156 13.6061C69.4921 14.9656 68.8681 16.9044 68.0436 19.4227C67.6201 18.2193 67.2078 17.0047 66.8067 15.779L66.0713 13.6061L63.7647 6.75322H58.7838ZM29.2322 19.1528L33.5445 17.7822C33.6782 18.384 34.0014 19.008 34.514 19.6543C35.0043 20.2783 35.9514 20.5903 37.3554 20.5903C38.1354 20.5903 38.7483 20.4343 39.194 20.1223C39.662 19.8103 39.896 19.4091 39.896 18.9188C39.896 18.4508 39.74 18.0831 39.428 17.8157C39.116 17.5259 38.5811 17.3031 37.8234 17.1471L35.45 16.6791C33.5111 16.3002 32.0959 15.7319 31.2045 14.9742C30.3354 14.2165 29.9008 13.0688 29.9008 11.531C29.9008 9.92646 30.5471 8.64502 31.8397 7.68673C33.1322 6.72844 34.8817 6.24929 37.088 6.24929C38.9154 6.24929 40.4309 6.62815 41.6343 7.38587C42.86 8.14359 43.6957 9.04617 44.1415 10.0936L40.2303 11.8653C39.6509 10.3053 38.5254 9.52532 36.854 9.52532C36.0963 9.52532 35.5057 9.67017 35.0823 9.95989C34.6811 10.2496 34.4805 10.6396 34.4805 11.1299C34.4805 11.5979 34.6365 11.9545 34.9485 12.1996C35.2828 12.4225 35.8957 12.6119 36.7871 12.7679L39.0937 13.2025C42.9269 13.9379 44.8435 15.6762 44.8435 18.4174C44.8435 20.1111 44.1526 21.4594 42.7709 22.4623C41.3892 23.4429 39.4949 23.9331 37.088 23.9331C35.1045 23.9331 33.3774 23.4986 31.9065 22.6294C30.4579 21.7603 29.5665 20.6014 29.2322 19.1528ZM4.37514 6.26402C7.06653 6.25216 9.60824 7.52011 11.4662 9.70763C11.0873 10.2484 10.7424 10.8291 10.4366 11.4464L9.25153 13.8381C8.11925 12.0307 6.31837 10.9488 4.38995 10.9573L0.0148134 10.9766L0 6.28331L4.37514 6.26402ZM20.0512 6.26402C16.4894 6.24832 13.1898 8.47401 11.3902 12.1062L9.60877 15.7014C8.52435 17.89 6.53614 19.2311 4.38996 19.2217L0.0148201 19.2024L4.88731e-06 23.8957L4.37515 23.915C7.93689 23.9307 11.2365 21.705 13.0361 18.0728L14.8175 14.4776C15.9019 12.289 17.8902 10.9479 20.0363 10.9573L24.4115 10.9766L24.4263 6.28331L20.0512 6.26402ZM15.1748 16.341L13.9897 18.7326C13.6839 19.3499 13.339 19.9306 12.9601 20.4714C14.8181 22.6589 17.3598 23.9268 20.0511 23.915L24.4263 23.8957L24.4115 19.2024L20.0363 19.2217C18.1079 19.2302 16.3071 18.1483 15.1748 16.341Z" fill="url(#paint1_linear_128_268)"/>
</g>
<defs>
<linearGradient id="paint0_linear_128_268" x1="-33.4498" y1="33.5519" x2="225.176" y2="9.76678" gradientUnits="userSpaceOnUse">
<stop stop-color="#9BBCC3"/>
<stop offset="0.192794" stop-color="#ABC2E2"/>
<stop offset="0.503569" stop-color="#CBA5D1"/>
<stop offset="0.745028" stop-color="#F8719D"/>
<stop offset="1" stop-color="#FF6192"/>
</linearGradient>
<linearGradient id="paint1_linear_128_268" x1="-33.4498" y1="33.5519" x2="225.176" y2="9.76678" gradientUnits="userSpaceOnUse">
<stop stop-color="#9BBCC3"/>
<stop offset="0.192794" stop-color="#ABC2E2"/>
<stop offset="0.503569" stop-color="#CBA5D1"/>
<stop offset="0.745028" stop-color="#F8719D"/>
<stop offset="1" stop-color="#FF6192"/>
</linearGradient>
</defs>
</svg>
