<svg width="162" height="23" viewBox="0 0 162 23" fill="none" xmlns="http://www.w3.org/2000/svg">
    <path fill-rule="evenodd" clip-rule="evenodd" d="M38.3301 0.763489V4.49637H42.5365V0.763489H38.3301ZM38.4694 6.39067V20.3193H42.4251V6.39067H38.4694ZM44.5605 20.3198V0.819641H48.5163V20.3198H44.5605ZM63.5265 16.7518C63.5451 15.8418 63.7679 15.0525 64.1951 14.3839C64.6222 13.7153 65.2351 13.1768 66.0337 12.7682C66.8508 12.3596 67.7515 12.0439 68.7358 11.821C69.7387 11.5796 70.918 11.3939 72.2737 11.2639V10.7346C72.2737 9.45318 71.5123 8.81246 69.9894 8.81246C68.2994 8.81246 67.278 9.54603 66.9251 11.0132L63.3594 10.2332C63.4708 9.06317 64.1208 8.06031 65.3094 7.22459C66.5165 6.38887 68.0673 5.97101 69.9616 5.97101C71.9673 5.97101 73.4994 6.42601 74.558 7.33602C75.6352 8.24602 76.1738 9.59246 76.1738 11.3753V16.4732C76.1738 16.8447 76.2202 17.0768 76.313 17.1697C76.4059 17.2625 76.638 17.3089 77.0095 17.3089H78.2352V20.3175H75.1987C73.6759 20.3175 72.8402 19.6397 72.6916 18.2839C71.6144 19.9368 70.0266 20.7633 67.928 20.7633C66.6651 20.7633 65.6158 20.3918 64.7801 19.649C63.9444 18.9061 63.5265 17.9404 63.5265 16.7518ZM72.2737 14.6068V13.7153C70.6766 13.9196 69.488 14.2075 68.708 14.5789C67.928 14.9504 67.538 15.5446 67.538 16.3618C67.538 17.3647 68.1415 17.8661 69.3487 17.8661C70.1844 17.8661 70.8809 17.5875 71.438 17.0304C71.9951 16.4732 72.2737 15.6654 72.2737 14.6068ZM78.6621 6.38887V20.3175H82.6179V13.7153C82.6179 11.9696 82.9243 10.7253 83.5371 9.98246C83.9457 9.48103 84.5679 9.23032 85.4036 9.23032C86.8893 9.23032 87.6322 10.1032 87.6322 11.8489V20.3175H91.5879V10.9853C91.5879 9.38818 91.1979 8.15317 90.4179 7.2803C89.6565 6.40744 88.5143 5.97101 86.9915 5.97101C85.0414 5.97101 83.5464 6.8253 82.5064 8.53388V6.38887H78.6621ZM93.4724 14.3839C93.0453 15.0525 92.8224 15.8418 92.8039 16.7518C92.8039 17.9404 93.2217 18.9061 94.0574 19.649C94.8932 20.3918 95.9425 20.7633 97.2053 20.7633C99.3039 20.7633 100.892 19.9368 101.969 18.2839C102.117 19.6397 102.953 20.3175 104.476 20.3175H107.513V17.3089H106.287C105.915 17.3089 105.683 17.2625 105.59 17.1697C105.498 17.0768 105.451 16.8447 105.451 16.4732V11.3753C105.451 9.59246 104.913 8.24602 103.835 7.33602C102.777 6.42601 101.245 5.97101 99.2389 5.97101C97.3446 5.97101 95.7939 6.38887 94.5867 7.22459C93.3981 8.06031 92.7481 9.06317 92.6367 10.2332L96.2025 11.0132C96.5553 9.54603 97.5768 8.81246 99.2668 8.81246C100.79 8.81246 101.551 9.45318 101.551 10.7346V11.2639C100.195 11.3939 99.016 11.5796 98.0132 11.821C97.0289 12.0439 96.1282 12.3596 95.311 12.7682C94.5124 13.1768 93.8996 13.7153 93.4724 14.3839ZM101.551 13.7153V14.6068C101.551 15.6654 101.272 16.4732 100.715 17.0304C100.158 17.5875 99.4618 17.8661 98.626 17.8661C97.4189 17.8661 96.8153 17.3647 96.8153 16.3618C96.8153 15.5446 97.2053 14.9504 97.9853 14.5789C98.7653 14.2075 99.9539 13.9196 101.551 13.7153ZM48.9941 6.39093L54.3427 20.3196H59.0785L64.1485 6.39093H60.1092L58.2706 12.1017C57.9178 13.2345 57.3978 14.8503 56.7106 16.9489C56.3578 15.946 56.0142 14.9338 55.6799 13.9124L55.067 12.1017L53.1449 6.39093H48.9941ZM24.3652 16.7239L27.9588 15.5818C28.0703 16.0832 28.3395 16.6032 28.7667 17.1418C29.1753 17.6618 29.9646 17.9218 31.1346 17.9218C31.7846 17.9218 32.2953 17.7918 32.6667 17.5318C33.0567 17.2718 33.2517 16.9375 33.2517 16.5289C33.2517 16.1389 33.1217 15.8325 32.8617 15.6096C32.6017 15.3682 32.156 15.1825 31.5246 15.0525L29.5467 14.6625C27.931 14.3468 26.7517 13.8732 26.0088 13.2418C25.2845 12.6103 24.9224 11.6539 24.9224 10.3725C24.9224 9.03531 25.461 7.96745 26.5381 7.16887C27.6153 6.3703 29.0731 5.97101 30.9117 5.97101C32.4346 5.97101 33.6974 6.28672 34.7003 6.91816C35.7217 7.54959 36.4182 8.30174 36.7896 9.1746L33.5303 10.651C33.0474 9.35103 32.1096 8.70103 30.7167 8.70103C30.0853 8.70103 29.5931 8.82174 29.2403 9.06317C28.906 9.3046 28.7388 9.6296 28.7388 10.0382C28.7388 10.4282 28.8688 10.7253 29.1288 10.9296C29.4074 11.1153 29.9181 11.2732 30.661 11.4032L32.5831 11.7653C35.7775 12.3782 37.3746 13.8268 37.3746 16.1111C37.3746 17.5225 36.7989 18.6461 35.6475 19.4818C34.496 20.299 32.9174 20.7075 30.9117 20.7075C29.2588 20.7075 27.8195 20.3454 26.5938 19.6211C25.3867 18.8968 24.6438 17.9311 24.3652 16.7239ZM3.64594 5.98328C5.88877 5.9734 8.00685 7.03002 9.55516 8.85295C9.23938 9.30362 8.952 9.78753 8.69713 10.3019L7.7096 12.295C6.76603 10.7889 5.2653 9.88727 3.65829 9.89436L0.0123445 9.91043L0 5.99936L3.64594 5.98328ZM16.7093 5.98328C13.7412 5.9702 10.9915 7.82494 9.49178 10.8517L8.0073 13.8478C7.10362 15.6716 5.44677 16.7892 3.6583 16.7813L0.0123501 16.7652L4.07276e-06 20.6763L3.64595 20.6924C6.61406 20.7055 9.36372 18.8507 10.8634 15.8239L12.3479 12.8279C13.2516 11.0041 14.9084 9.88647 16.6969 9.89436L20.3429 9.91043L20.3552 5.99936L16.7093 5.98328ZM12.6456 14.3807L11.6581 16.3738C11.4032 16.8882 11.1158 17.3721 10.8001 17.8227C12.3484 19.6457 14.4665 20.7023 16.7093 20.6924L20.3552 20.6763L20.3429 16.7652L16.6969 16.7813C15.0899 16.7884 13.5892 15.8868 12.6456 14.3807Z" fill="url(#paint0_linear_346_891)"/>
    <g style="mix-blend-mode:multiply" opacity="0.2">
    <path fill-rule="evenodd" clip-rule="evenodd" d="M38.3301 0.763489V4.49637H42.5365V0.763489H38.3301ZM38.4694 6.39067V20.3193H42.4251V6.39067H38.4694ZM44.5605 20.3198V0.819641H48.5163V20.3198H44.5605ZM63.5265 16.7518C63.5451 15.8418 63.7679 15.0525 64.1951 14.3839C64.6222 13.7153 65.2351 13.1768 66.0337 12.7682C66.8508 12.3596 67.7515 12.0439 68.7358 11.821C69.7387 11.5796 70.918 11.3939 72.2737 11.2639V10.7346C72.2737 9.45318 71.5123 8.81246 69.9894 8.81246C68.2994 8.81246 67.278 9.54603 66.9251 11.0132L63.3594 10.2332C63.4708 9.06317 64.1208 8.06031 65.3094 7.22459C66.5165 6.38887 68.0673 5.97101 69.9616 5.97101C71.9673 5.97101 73.4994 6.42601 74.558 7.33602C75.6352 8.24602 76.1738 9.59246 76.1738 11.3753V16.4732C76.1738 16.8447 76.2202 17.0768 76.313 17.1697C76.4059 17.2625 76.638 17.3089 77.0095 17.3089H78.2352V20.3175H75.1987C73.6759 20.3175 72.8402 19.6397 72.6916 18.2839C71.6144 19.9368 70.0266 20.7633 67.928 20.7633C66.6651 20.7633 65.6158 20.3918 64.7801 19.649C63.9444 18.9061 63.5265 17.9404 63.5265 16.7518ZM72.2737 14.6068V13.7153C70.6766 13.9196 69.488 14.2075 68.708 14.5789C67.928 14.9504 67.538 15.5446 67.538 16.3618C67.538 17.3647 68.1415 17.8661 69.3487 17.8661C70.1844 17.8661 70.8809 17.5875 71.438 17.0304C71.9951 16.4732 72.2737 15.6654 72.2737 14.6068ZM78.6621 6.38887V20.3175H82.6179V13.7153C82.6179 11.9696 82.9243 10.7253 83.5371 9.98246C83.9457 9.48103 84.5679 9.23032 85.4036 9.23032C86.8893 9.23032 87.6322 10.1032 87.6322 11.8489V20.3175H91.5879V10.9853C91.5879 9.38818 91.1979 8.15317 90.4179 7.2803C89.6565 6.40744 88.5143 5.97101 86.9915 5.97101C85.0414 5.97101 83.5464 6.8253 82.5064 8.53388V6.38887H78.6621ZM93.4724 14.3839C93.0453 15.0525 92.8224 15.8418 92.8039 16.7518C92.8039 17.9404 93.2217 18.9061 94.0574 19.649C94.8932 20.3918 95.9425 20.7633 97.2053 20.7633C99.3039 20.7633 100.892 19.9368 101.969 18.2839C102.117 19.6397 102.953 20.3175 104.476 20.3175H107.513V17.3089H106.287C105.915 17.3089 105.683 17.2625 105.59 17.1697C105.498 17.0768 105.451 16.8447 105.451 16.4732V11.3753C105.451 9.59246 104.913 8.24602 103.835 7.33602C102.777 6.42601 101.245 5.97101 99.2389 5.97101C97.3446 5.97101 95.7939 6.38887 94.5867 7.22459C93.3981 8.06031 92.7481 9.06317 92.6367 10.2332L96.2025 11.0132C96.5553 9.54603 97.5768 8.81246 99.2668 8.81246C100.79 8.81246 101.551 9.45318 101.551 10.7346V11.2639C100.195 11.3939 99.016 11.5796 98.0132 11.821C97.0289 12.0439 96.1282 12.3596 95.311 12.7682C94.5124 13.1768 93.8996 13.7153 93.4724 14.3839ZM101.551 13.7153V14.6068C101.551 15.6654 101.272 16.4732 100.715 17.0304C100.158 17.5875 99.4618 17.8661 98.626 17.8661C97.4189 17.8661 96.8153 17.3647 96.8153 16.3618C96.8153 15.5446 97.2053 14.9504 97.9853 14.5789C98.7653 14.2075 99.9539 13.9196 101.551 13.7153ZM48.9941 6.39093L54.3427 20.3196H59.0785L64.1485 6.39093H60.1092L58.2706 12.1017C57.9178 13.2345 57.3978 14.8503 56.7106 16.9489C56.3578 15.946 56.0142 14.9338 55.6799 13.9124L55.067 12.1017L53.1449 6.39093H48.9941ZM24.3652 16.7239L27.9588 15.5818C28.0703 16.0832 28.3395 16.6032 28.7667 17.1418C29.1753 17.6618 29.9646 17.9218 31.1346 17.9218C31.7846 17.9218 32.2953 17.7918 32.6667 17.5318C33.0567 17.2718 33.2517 16.9375 33.2517 16.5289C33.2517 16.1389 33.1217 15.8325 32.8617 15.6096C32.6017 15.3682 32.156 15.1825 31.5246 15.0525L29.5467 14.6625C27.931 14.3468 26.7517 13.8732 26.0088 13.2418C25.2845 12.6103 24.9224 11.6539 24.9224 10.3725C24.9224 9.03531 25.461 7.96745 26.5381 7.16887C27.6153 6.3703 29.0731 5.97101 30.9117 5.97101C32.4346 5.97101 33.6974 6.28672 34.7003 6.91816C35.7217 7.54959 36.4182 8.30174 36.7896 9.1746L33.5303 10.651C33.0474 9.35103 32.1096 8.70103 30.7167 8.70103C30.0853 8.70103 29.5931 8.82174 29.2403 9.06317C28.906 9.3046 28.7388 9.6296 28.7388 10.0382C28.7388 10.4282 28.8688 10.7253 29.1288 10.9296C29.4074 11.1153 29.9181 11.2732 30.661 11.4032L32.5831 11.7653C35.7775 12.3782 37.3746 13.8268 37.3746 16.1111C37.3746 17.5225 36.7989 18.6461 35.6475 19.4818C34.496 20.299 32.9174 20.7075 30.9117 20.7075C29.2588 20.7075 27.8195 20.3454 26.5938 19.6211C25.3867 18.8968 24.6438 17.9311 24.3652 16.7239ZM3.64594 6.01953C5.88877 6.00964 8.00685 7.06627 9.55516 8.8892C9.23938 9.33986 8.952 9.82377 8.69713 10.3382L7.7096 12.3312C6.76603 10.8251 5.2653 9.92352 3.65829 9.9306L0.0123445 9.94667L0 6.0356L3.64594 6.01953ZM16.7093 6.01953C13.7412 6.00645 10.9915 7.86118 9.49178 10.888L8.0073 13.884C7.10362 15.7079 5.44677 16.8255 3.6583 16.8176L0.0123501 16.8015L4.07276e-06 20.7126L3.64595 20.7286C6.61406 20.7417 9.36372 18.887 10.8634 15.8602L12.3479 12.8642C13.2516 11.0403 14.9084 9.92272 16.6969 9.9306L20.3429 9.94667L20.3552 6.0356L16.7093 6.01953ZM12.6456 14.417L11.6581 16.41C11.4032 16.9244 11.1158 17.4083 10.8001 17.859C12.3484 19.6819 14.4665 20.7385 16.7093 20.7286L20.3552 20.7126L20.3429 16.8015L16.6969 16.8176C15.0899 16.8246 13.5892 15.9231 12.6456 14.417Z" fill="url(#paint1_linear_346_891)"/>
    </g>
    <rect x="113.861" y="4.87408" width="47.547" height="17" rx="3.5" fill="white"/>
    <rect x="113.861" y="4.87408" width="47.547" height="17" rx="3.5" stroke="#D6448F"/>
    <path d="M154.363 11.0565C154.313 10.6079 154.104 10.2603 153.738 10.0139C153.371 9.76429 152.91 9.63949 152.354 9.63949C151.956 9.63949 151.611 9.70268 151.32 9.82906C151.03 9.95228 150.804 10.1229 150.643 10.3409C150.485 10.5558 150.406 10.8006 150.406 11.0755C150.406 11.3062 150.46 11.5052 150.567 11.6727C150.678 11.8401 150.821 11.9807 150.998 12.0945C151.178 12.205 151.371 12.2983 151.576 12.3741C151.782 12.4468 151.979 12.5068 152.169 12.5542L153.117 12.8006C153.426 12.8765 153.744 12.9791 154.069 13.1087C154.395 13.2382 154.696 13.4088 154.975 13.6205C155.253 13.8322 155.477 14.0945 155.648 14.4073C155.821 14.7201 155.908 15.0945 155.908 15.5305C155.908 16.0802 155.766 16.5684 155.482 16.9949C155.2 17.4215 154.791 17.758 154.254 18.0044C153.72 18.2509 153.074 18.3741 152.316 18.3741C151.589 18.3741 150.96 18.2588 150.43 18.0281C149.899 17.7975 149.483 17.4705 149.183 17.0471C148.883 16.6205 148.717 16.115 148.685 15.5305H150.155C150.183 15.8812 150.297 16.1735 150.496 16.4073C150.698 16.6379 150.956 16.8101 151.268 16.9238C151.584 17.0344 151.93 17.0897 152.306 17.0897C152.72 17.0897 153.088 17.025 153.411 16.8954C153.736 16.7627 153.992 16.5795 154.178 16.3456C154.365 16.1087 154.458 15.8322 154.458 15.5163C154.458 15.2287 154.376 14.9934 154.211 14.8101C154.05 14.6268 153.831 14.4752 153.553 14.3551C153.278 14.2351 152.967 14.1292 152.619 14.0376L151.472 13.7248C150.695 13.5131 150.079 13.2019 149.624 12.7911C149.172 12.3804 148.946 11.837 148.946 11.1608C148.946 10.6016 149.098 10.1134 149.401 9.69636C149.704 9.2793 150.115 8.95544 150.633 8.7248C151.151 8.49099 151.736 8.37408 152.387 8.37408C153.044 8.37408 153.624 8.48941 154.126 8.72006C154.632 8.9507 155.03 9.26824 155.32 9.67266C155.611 10.0739 155.763 10.5352 155.775 11.0565H154.363Z" fill="#D6448F"/>
    <path d="M147.308 11.6632H145.829C145.773 11.3472 145.667 11.0692 145.512 10.8291C145.357 10.5889 145.168 10.3851 144.943 10.2177C144.719 10.0502 144.468 9.92385 144.19 9.83854C143.915 9.75323 143.622 9.71058 143.313 9.71058C142.754 9.71058 142.253 9.85118 141.81 10.1324C141.371 10.4136 141.024 10.8259 140.768 11.3693C140.515 11.9128 140.389 12.5763 140.389 13.3599C140.389 14.1498 140.515 14.8164 140.768 15.3599C141.024 15.9033 141.373 16.3141 141.815 16.5921C142.258 16.8701 142.755 17.0092 143.308 17.0092C143.615 17.0092 143.905 16.9681 144.18 16.8859C144.458 16.8006 144.709 16.6758 144.934 16.5115C145.158 16.3472 145.348 16.1466 145.502 15.9096C145.66 15.6695 145.769 15.3946 145.829 15.085L147.308 15.0897C147.229 15.5668 147.076 16.006 146.848 16.4073C146.624 16.8054 146.335 17.1498 145.981 17.4404C145.63 17.728 145.229 17.9507 144.777 18.1087C144.325 18.2667 143.833 18.3456 143.299 18.3456C142.458 18.3456 141.709 18.1466 141.052 17.7485C140.395 17.3472 139.877 16.7738 139.498 16.0281C139.122 15.2825 138.934 14.393 138.934 13.3599C138.934 12.3235 139.123 11.4341 139.502 10.6916C139.882 9.94596 140.4 9.37408 141.057 8.97598C141.714 8.57472 142.461 8.37408 143.299 8.37408C143.814 8.37408 144.294 8.44833 144.739 8.59683C145.188 8.74217 145.591 8.95702 145.948 9.24138C146.305 9.52258 146.6 9.86698 146.834 10.2746C147.068 10.679 147.226 11.1419 147.308 11.6632Z" fill="#D6448F"/>
    <path d="M137.426 13.3599C137.426 14.3962 137.236 15.2872 136.857 16.0329C136.478 16.7753 135.958 17.3472 135.298 17.7485C134.641 18.1466 133.893 18.3456 133.056 18.3456C132.216 18.3456 131.465 18.1466 130.805 17.7485C130.148 17.3472 129.63 16.7738 129.25 16.0281C128.871 15.2825 128.682 14.393 128.682 13.3599C128.682 12.3235 128.871 11.4341 129.25 10.6916C129.63 9.94596 130.148 9.37408 130.805 8.97598C131.465 8.57472 132.216 8.37408 133.056 8.37408C133.893 8.37408 134.641 8.57472 135.298 8.97598C135.958 9.37408 136.478 9.94596 136.857 10.6916C137.236 11.4341 137.426 12.3235 137.426 13.3599ZM135.976 13.3599C135.976 12.57 135.848 11.9049 135.592 11.3646C135.339 10.8212 134.991 10.4104 134.549 10.1324C134.11 9.85118 133.612 9.71058 133.056 9.71058C132.497 9.71058 131.998 9.85118 131.559 10.1324C131.119 10.4104 130.772 10.8212 130.516 11.3646C130.263 11.9049 130.137 12.57 130.137 13.3599C130.137 14.1498 130.263 14.8164 130.516 15.3599C130.772 15.9001 131.119 16.3109 131.559 16.5921C131.998 16.8701 132.497 17.0092 133.056 17.0092C133.612 17.0092 134.11 16.8701 134.549 16.5921C134.991 16.3109 135.339 15.9001 135.592 15.3599C135.848 14.8164 135.976 14.1498 135.976 13.3599Z" fill="#D6448F"/>
    <path d="M122.504 18.2127H119.361V8.5065H122.603C123.554 8.5065 124.371 8.70081 125.053 9.08944C125.736 9.4749 126.259 10.0294 126.622 10.7529C126.988 11.4733 127.172 12.3375 127.172 13.3454C127.172 14.3564 126.987 15.2253 126.617 15.952C126.251 16.6787 125.72 17.2379 125.025 17.6297C124.33 18.0183 123.489 18.2127 122.504 18.2127ZM120.826 16.933H122.423C123.162 16.933 123.777 16.794 124.267 16.516C124.756 16.2348 125.123 15.8288 125.366 15.298C125.609 14.764 125.731 14.1131 125.731 13.3454C125.731 12.5839 125.609 11.9378 125.366 11.407C125.126 10.8762 124.767 10.4733 124.29 10.1984C123.813 9.92356 123.221 9.78612 122.513 9.78612H120.826V16.933Z" fill="#D6448F"/>
    <defs>
    <linearGradient id="paint0_linear_346_891" x1="-27.8763" y1="28.723" x2="187.657" y2="8.89979" gradientUnits="userSpaceOnUse">
    <stop stop-color="#9BBCC3"/>
    <stop offset="0.192794" stop-color="#ABC2E2"/>
    <stop offset="0.503569" stop-color="#CBA5D1"/>
    <stop offset="0.745028" stop-color="#F8719D"/>
    <stop offset="1" stop-color="#FF6192"/>
    </linearGradient>
    <linearGradient id="paint1_linear_346_891" x1="-27.8763" y1="28.723" x2="187.657" y2="8.89979" gradientUnits="userSpaceOnUse">
    <stop stop-color="#9BBCC3"/>
    <stop offset="0.192794" stop-color="#ABC2E2"/>
    <stop offset="0.503569" stop-color="#CBA5D1"/>
    <stop offset="0.745028" stop-color="#F8719D"/>
    <stop offset="1" stop-color="#FF6192"/>
    </linearGradient>
    </defs>
    </svg>
    